<mxfile host="app.diagrams.net" modified="2023-12-07T04:42:59.493Z" agent="Mozilla/5.0 (Macintosh; Intel Mac OS X 10_15_7) AppleWebKit/537.36 (KHTML, like Gecko) Chrome/119.0.0.0 Safari/537.36" etag="8zeV9c2Pd3bHJsWZjWmo" version="22.1.7" type="github">
  <diagram name="第 1 页" id="A0b5aFBu1c7vlndt50GD">
    <mxGraphModel dx="954" dy="610" grid="0" gridSize="10" guides="1" tooltips="1" connect="1" arrows="1" fold="1" page="1" pageScale="1" pageWidth="827" pageHeight="1169" math="0" shadow="0">
      <root>
        <mxCell id="0" />
        <mxCell id="1" parent="0" />
        <mxCell id="2bJjXbzB8SNlkxlzHQHq-4" style="edgeStyle=orthogonalEdgeStyle;rounded=0;orthogonalLoop=1;jettySize=auto;html=1;exitX=0.5;exitY=1;exitDx=0;exitDy=0;entryX=0.5;entryY=0;entryDx=0;entryDy=0;" edge="1" parent="1" source="2bJjXbzB8SNlkxlzHQHq-2" target="2bJjXbzB8SNlkxlzHQHq-3">
          <mxGeometry relative="1" as="geometry" />
        </mxCell>
        <mxCell id="2bJjXbzB8SNlkxlzHQHq-2" value="INFP" style="ellipse;whiteSpace=wrap;html=1;aspect=fixed;fillColor=#d5e8d4;strokeColor=#82b366;" vertex="1" parent="1">
          <mxGeometry x="106" y="99" width="80" height="80" as="geometry" />
        </mxCell>
        <mxCell id="2bJjXbzB8SNlkxlzHQHq-6" style="edgeStyle=orthogonalEdgeStyle;rounded=0;orthogonalLoop=1;jettySize=auto;html=1;exitX=0.5;exitY=1;exitDx=0;exitDy=0;entryX=0.5;entryY=0;entryDx=0;entryDy=0;" edge="1" parent="1" source="2bJjXbzB8SNlkxlzHQHq-3" target="2bJjXbzB8SNlkxlzHQHq-5">
          <mxGeometry relative="1" as="geometry" />
        </mxCell>
        <mxCell id="2bJjXbzB8SNlkxlzHQHq-3" value="ENFP" style="ellipse;whiteSpace=wrap;html=1;aspect=fixed;fillColor=#d5e8d4;strokeColor=#82b366;" vertex="1" parent="1">
          <mxGeometry x="106" y="219" width="80" height="80" as="geometry" />
        </mxCell>
        <mxCell id="2bJjXbzB8SNlkxlzHQHq-20" style="edgeStyle=orthogonalEdgeStyle;rounded=0;orthogonalLoop=1;jettySize=auto;html=1;exitX=0.5;exitY=1;exitDx=0;exitDy=0;entryX=0.5;entryY=0;entryDx=0;entryDy=0;" edge="1" parent="1" source="2bJjXbzB8SNlkxlzHQHq-5" target="2bJjXbzB8SNlkxlzHQHq-19">
          <mxGeometry relative="1" as="geometry" />
        </mxCell>
        <mxCell id="2bJjXbzB8SNlkxlzHQHq-5" value="ENTP" style="ellipse;whiteSpace=wrap;html=1;aspect=fixed;fillColor=#e1d5e7;strokeColor=#9673a6;" vertex="1" parent="1">
          <mxGeometry x="106" y="339" width="80" height="80" as="geometry" />
        </mxCell>
        <mxCell id="2bJjXbzB8SNlkxlzHQHq-7" value="" style="endArrow=classic;html=1;rounded=0;entryX=0;entryY=0;entryDx=0;entryDy=0;" edge="1" parent="1" target="2bJjXbzB8SNlkxlzHQHq-2">
          <mxGeometry width="50" height="50" relative="1" as="geometry">
            <mxPoint x="65" y="55" as="sourcePoint" />
            <mxPoint x="437" y="243" as="targetPoint" />
          </mxGeometry>
        </mxCell>
        <mxCell id="2bJjXbzB8SNlkxlzHQHq-8" value="" style="endArrow=classic;html=1;rounded=0;entryX=0;entryY=0;entryDx=0;entryDy=0;" edge="1" parent="1">
          <mxGeometry width="50" height="50" relative="1" as="geometry">
            <mxPoint x="63" y="177" as="sourcePoint" />
            <mxPoint x="116" y="233" as="targetPoint" />
          </mxGeometry>
        </mxCell>
        <mxCell id="2bJjXbzB8SNlkxlzHQHq-9" value="" style="endArrow=classic;html=1;rounded=0;entryX=0;entryY=0;entryDx=0;entryDy=0;" edge="1" parent="1">
          <mxGeometry width="50" height="50" relative="1" as="geometry">
            <mxPoint x="58" y="299" as="sourcePoint" />
            <mxPoint x="111" y="355" as="targetPoint" />
          </mxGeometry>
        </mxCell>
        <mxCell id="2bJjXbzB8SNlkxlzHQHq-10" value="&lt;span style=&quot;font-size: 10px;&quot;&gt;&lt;i&gt;u&lt;sub&gt;1&lt;/sub&gt;&lt;/i&gt;&lt;/span&gt;" style="text;html=1;align=center;verticalAlign=middle;resizable=0;points=[];autosize=1;strokeColor=none;fillColor=none;" vertex="1" parent="1">
          <mxGeometry x="71" y="37" width="28" height="28" as="geometry" />
        </mxCell>
        <mxCell id="2bJjXbzB8SNlkxlzHQHq-11" value="&lt;i&gt;u&lt;sub&gt;2&lt;/sub&gt;&lt;/i&gt;" style="text;html=1;align=center;verticalAlign=middle;resizable=0;points=[];autosize=1;strokeColor=none;fillColor=none;" vertex="1" parent="1">
          <mxGeometry x="70" y="164" width="30" height="29" as="geometry" />
        </mxCell>
        <mxCell id="2bJjXbzB8SNlkxlzHQHq-12" value="&lt;i&gt;u&lt;sub&gt;3&lt;/sub&gt;&lt;/i&gt;" style="text;html=1;align=center;verticalAlign=middle;resizable=0;points=[];autosize=1;strokeColor=none;fillColor=none;" vertex="1" parent="1">
          <mxGeometry x="70" y="291" width="30" height="29" as="geometry" />
        </mxCell>
        <mxCell id="2bJjXbzB8SNlkxlzHQHq-13" value="" style="endArrow=classic;html=1;rounded=0;" edge="1" parent="1">
          <mxGeometry width="50" height="50" relative="1" as="geometry">
            <mxPoint x="234" y="146" as="sourcePoint" />
            <mxPoint x="149" y="194" as="targetPoint" />
          </mxGeometry>
        </mxCell>
        <mxCell id="2bJjXbzB8SNlkxlzHQHq-14" value="&lt;i&gt;E&lt;sub&gt;1&lt;/sub&gt;&lt;/i&gt;" style="text;html=1;align=center;verticalAlign=middle;resizable=0;points=[];autosize=1;strokeColor=none;fillColor=none;" vertex="1" parent="1">
          <mxGeometry x="189" y="168" width="32" height="29" as="geometry" />
        </mxCell>
        <mxCell id="2bJjXbzB8SNlkxlzHQHq-15" value="&lt;i&gt;E&lt;span style=&quot;font-size: 10px;&quot;&gt;&lt;sub&gt;3&lt;/sub&gt;&lt;/span&gt;&lt;/i&gt;" style="text;html=1;align=center;verticalAlign=middle;resizable=0;points=[];autosize=1;strokeColor=none;fillColor=none;" vertex="1" parent="1">
          <mxGeometry x="190" y="413" width="31" height="28" as="geometry" />
        </mxCell>
        <mxCell id="2bJjXbzB8SNlkxlzHQHq-16" value="&lt;i&gt;E&lt;span style=&quot;font-size: 10px;&quot;&gt;&lt;sub&gt;2&lt;/sub&gt;&lt;/span&gt;&lt;/i&gt;" style="text;html=1;align=center;verticalAlign=middle;resizable=0;points=[];autosize=1;strokeColor=none;fillColor=none;" vertex="1" parent="1">
          <mxGeometry x="192" y="288" width="31" height="28" as="geometry" />
        </mxCell>
        <mxCell id="2bJjXbzB8SNlkxlzHQHq-17" value="" style="endArrow=classic;html=1;rounded=0;" edge="1" parent="1">
          <mxGeometry width="50" height="50" relative="1" as="geometry">
            <mxPoint x="235" y="267" as="sourcePoint" />
            <mxPoint x="150" y="315" as="targetPoint" />
          </mxGeometry>
        </mxCell>
        <mxCell id="2bJjXbzB8SNlkxlzHQHq-18" value="" style="endArrow=classic;html=1;rounded=0;" edge="1" parent="1">
          <mxGeometry width="50" height="50" relative="1" as="geometry">
            <mxPoint x="236" y="391" as="sourcePoint" />
            <mxPoint x="151" y="439" as="targetPoint" />
          </mxGeometry>
        </mxCell>
        <mxCell id="2bJjXbzB8SNlkxlzHQHq-19" value="ESTP" style="ellipse;whiteSpace=wrap;html=1;aspect=fixed;fillColor=#fff2cc;strokeColor=#d6b656;" vertex="1" parent="1">
          <mxGeometry x="106" y="459" width="80" height="80" as="geometry" />
        </mxCell>
        <mxCell id="2bJjXbzB8SNlkxlzHQHq-25" style="edgeStyle=orthogonalEdgeStyle;rounded=0;orthogonalLoop=1;jettySize=auto;html=1;exitX=0;exitY=0.5;exitDx=0;exitDy=0;entryX=0;entryY=0.5;entryDx=0;entryDy=0;curved=1;" edge="1" parent="1" source="2bJjXbzB8SNlkxlzHQHq-21" target="2bJjXbzB8SNlkxlzHQHq-24">
          <mxGeometry relative="1" as="geometry">
            <Array as="points">
              <mxPoint x="434" y="216" />
              <mxPoint x="434" y="347" />
            </Array>
          </mxGeometry>
        </mxCell>
        <mxCell id="2bJjXbzB8SNlkxlzHQHq-21" value="INFP" style="ellipse;whiteSpace=wrap;html=1;aspect=fixed;fillColor=#d5e8d4;strokeColor=#82b366;" vertex="1" parent="1">
          <mxGeometry x="483" y="176" width="80" height="80" as="geometry" />
        </mxCell>
        <mxCell id="2bJjXbzB8SNlkxlzHQHq-22" value="&lt;span style=&quot;font-size: 10px;&quot;&gt;&lt;i&gt;u&lt;sub&gt;1&lt;/sub&gt;&lt;/i&gt;&lt;/span&gt;" style="text;html=1;align=center;verticalAlign=middle;resizable=0;points=[];autosize=1;strokeColor=none;fillColor=none;" vertex="1" parent="1">
          <mxGeometry x="445" y="125" width="28" height="28" as="geometry" />
        </mxCell>
        <mxCell id="2bJjXbzB8SNlkxlzHQHq-23" value="" style="endArrow=classic;html=1;rounded=0;entryX=0;entryY=0;entryDx=0;entryDy=0;" edge="1" parent="1">
          <mxGeometry width="50" height="50" relative="1" as="geometry">
            <mxPoint x="436" y="139" as="sourcePoint" />
            <mxPoint x="489" y="195" as="targetPoint" />
          </mxGeometry>
        </mxCell>
        <mxCell id="2bJjXbzB8SNlkxlzHQHq-26" style="edgeStyle=orthogonalEdgeStyle;rounded=0;orthogonalLoop=1;jettySize=auto;html=1;exitX=1;exitY=0.5;exitDx=0;exitDy=0;entryX=1;entryY=0.5;entryDx=0;entryDy=0;curved=1;" edge="1" parent="1" source="2bJjXbzB8SNlkxlzHQHq-24" target="2bJjXbzB8SNlkxlzHQHq-21">
          <mxGeometry relative="1" as="geometry">
            <Array as="points">
              <mxPoint x="617" y="347" />
              <mxPoint x="617" y="216" />
            </Array>
          </mxGeometry>
        </mxCell>
        <mxCell id="2bJjXbzB8SNlkxlzHQHq-24" value="INTP" style="ellipse;whiteSpace=wrap;html=1;aspect=fixed;fillColor=#e1d5e7;strokeColor=#9673a6;" vertex="1" parent="1">
          <mxGeometry x="481" y="307" width="80" height="80" as="geometry" />
        </mxCell>
        <mxCell id="2bJjXbzB8SNlkxlzHQHq-27" value="&lt;i style=&quot;&quot;&gt;&lt;span style=&quot;font-size: 10px;&quot;&gt;u&lt;/span&gt;&lt;span style=&quot;font-size: 8.33333px;&quot;&gt;&lt;sub&gt;2&lt;/sub&gt;&lt;/span&gt;&lt;/i&gt;" style="text;html=1;align=center;verticalAlign=middle;resizable=0;points=[];autosize=1;strokeColor=none;fillColor=none;" vertex="1" parent="1">
          <mxGeometry x="551" y="400" width="27" height="27" as="geometry" />
        </mxCell>
        <mxCell id="2bJjXbzB8SNlkxlzHQHq-28" value="" style="endArrow=classic;html=1;rounded=0;entryX=0;entryY=1;entryDx=0;entryDy=0;" edge="1" parent="1">
          <mxGeometry width="50" height="50" relative="1" as="geometry">
            <mxPoint x="606.28" y="418.72" as="sourcePoint" />
            <mxPoint x="551.9957287525378" y="372.00427124746216" as="targetPoint" />
          </mxGeometry>
        </mxCell>
        <mxCell id="2bJjXbzB8SNlkxlzHQHq-29" value="" style="endArrow=classic;html=1;rounded=0;" edge="1" parent="1">
          <mxGeometry width="50" height="50" relative="1" as="geometry">
            <mxPoint x="704" y="222" as="sourcePoint" />
            <mxPoint x="619" y="270" as="targetPoint" />
          </mxGeometry>
        </mxCell>
        <mxCell id="2bJjXbzB8SNlkxlzHQHq-30" value="&lt;i&gt;E&lt;sub&gt;1&lt;/sub&gt;&lt;/i&gt;" style="text;html=1;align=center;verticalAlign=middle;resizable=0;points=[];autosize=1;strokeColor=none;fillColor=none;" vertex="1" parent="1">
          <mxGeometry x="353" y="262" width="32" height="29" as="geometry" />
        </mxCell>
        <mxCell id="2bJjXbzB8SNlkxlzHQHq-32" value="&lt;i&gt;E&lt;span style=&quot;font-size: 10px;&quot;&gt;&lt;sub&gt;2&lt;/sub&gt;&lt;/span&gt;&lt;/i&gt;" style="text;html=1;align=center;verticalAlign=middle;resizable=0;points=[];autosize=1;strokeColor=none;fillColor=none;" vertex="1" parent="1">
          <mxGeometry x="651" y="256" width="31" height="28" as="geometry" />
        </mxCell>
        <mxCell id="2bJjXbzB8SNlkxlzHQHq-33" value="" style="endArrow=classic;html=1;rounded=0;" edge="1" parent="1">
          <mxGeometry width="50" height="50" relative="1" as="geometry">
            <mxPoint x="339" y="339" as="sourcePoint" />
            <mxPoint x="429" y="284" as="targetPoint" />
          </mxGeometry>
        </mxCell>
      </root>
    </mxGraphModel>
  </diagram>
</mxfile>
